<svg width="446" height="152" viewBox="0 0 446 152" fill="none" xmlns="http://www.w3.org/2000/svg">
<rect x="170" width="106" height="106" rx="53" fill="#FFEA9F"/>
<path d="M204 77.2H249.714V31.4857H204V77.2Z" fill="black"/>
<path d="M61.0284 129.545H64.5994L68.8693 137.267H69.0398L73.3097 129.545H76.8807L70.5312 140.489V147H67.3778V140.489L61.0284 129.545ZM82.2564 147.256C80.978 147.256 79.87 146.974 78.9325 146.412C77.995 145.849 77.2678 145.062 76.7507 144.051C76.2393 143.04 75.9837 141.858 75.9837 140.506C75.9837 139.153 76.2393 137.969 76.7507 136.952C77.2678 135.935 77.995 135.145 78.9325 134.582C79.87 134.02 80.978 133.739 82.2564 133.739C83.5348 133.739 84.6428 134.02 85.5803 134.582C86.5178 135.145 87.2422 135.935 87.7536 136.952C88.2706 137.969 88.5291 139.153 88.5291 140.506C88.5291 141.858 88.2706 143.04 87.7536 144.051C87.2422 145.062 86.5178 145.849 85.5803 146.412C84.6428 146.974 83.5348 147.256 82.2564 147.256ZM82.2734 144.784C82.9666 144.784 83.5462 144.594 84.0121 144.213C84.478 143.827 84.8246 143.31 85.0518 142.662C85.2848 142.014 85.4013 141.293 85.4013 140.497C85.4013 139.696 85.2848 138.972 85.0518 138.324C84.8246 137.67 84.478 137.151 84.0121 136.764C83.5462 136.378 82.9666 136.185 82.2734 136.185C81.5632 136.185 80.9723 136.378 80.5007 136.764C80.0348 137.151 79.6854 137.67 79.4524 138.324C79.2251 138.972 79.1115 139.696 79.1115 140.497C79.1115 141.293 79.2251 142.014 79.4524 142.662C79.6854 143.31 80.0348 143.827 80.5007 144.213C80.9723 144.594 81.5632 144.784 82.2734 144.784ZM99.4915 141.494V133.909H102.577V147H99.5852V144.673H99.4489C99.1534 145.406 98.6676 146.006 97.9915 146.472C97.321 146.937 96.4943 147.17 95.5114 147.17C94.6534 147.17 93.8949 146.98 93.2358 146.599C92.5824 146.213 92.071 145.653 91.7017 144.92C91.3324 144.182 91.1477 143.29 91.1477 142.244V133.909H94.233V141.767C94.233 142.597 94.4602 143.256 94.9148 143.744C95.3693 144.233 95.9659 144.477 96.7045 144.477C97.1591 144.477 97.5994 144.366 98.0256 144.145C98.4517 143.923 98.8011 143.594 99.0739 143.156C99.3523 142.713 99.4915 142.159 99.4915 141.494ZM105.749 147V133.909H108.741V136.091H108.877C109.116 135.335 109.525 134.753 110.104 134.344C110.69 133.929 111.357 133.722 112.107 133.722C112.278 133.722 112.468 133.73 112.678 133.747C112.894 133.759 113.073 133.778 113.215 133.807V136.645C113.085 136.599 112.877 136.56 112.593 136.526C112.315 136.486 112.045 136.466 111.783 136.466C111.221 136.466 110.715 136.588 110.266 136.832C109.823 137.071 109.474 137.403 109.218 137.83C108.962 138.256 108.835 138.747 108.835 139.304V147H105.749ZM126.928 147.256C125.65 147.256 124.542 146.974 123.604 146.412C122.667 145.849 121.94 145.062 121.423 144.051C120.911 143.04 120.656 141.858 120.656 140.506C120.656 139.153 120.911 137.969 121.423 136.952C121.94 135.935 122.667 135.145 123.604 134.582C124.542 134.02 125.65 133.739 126.928 133.739C128.207 133.739 129.315 134.02 130.252 134.582C131.19 135.145 131.914 135.935 132.425 136.952C132.942 137.969 133.201 139.153 133.201 140.506C133.201 141.858 132.942 143.04 132.425 144.051C131.914 145.062 131.19 145.849 130.252 146.412C129.315 146.974 128.207 147.256 126.928 147.256ZM126.945 144.784C127.638 144.784 128.218 144.594 128.684 144.213C129.15 143.827 129.496 143.31 129.724 142.662C129.957 142.014 130.073 141.293 130.073 140.497C130.073 139.696 129.957 138.972 129.724 138.324C129.496 137.67 129.15 137.151 128.684 136.764C128.218 136.378 127.638 136.185 126.945 136.185C126.235 136.185 125.644 136.378 125.173 136.764C124.707 137.151 124.357 137.67 124.124 138.324C123.897 138.972 123.783 139.696 123.783 140.497C123.783 141.293 123.897 142.014 124.124 142.662C124.357 143.31 124.707 143.827 125.173 144.213C125.644 144.594 126.235 144.784 126.945 144.784ZM135.82 147V133.909H138.811V136.091H138.947C139.186 135.335 139.595 134.753 140.175 134.344C140.76 133.929 141.428 133.722 142.178 133.722C142.348 133.722 142.538 133.73 142.749 133.747C142.964 133.759 143.143 133.778 143.286 133.807V136.645C143.155 136.599 142.947 136.56 142.663 136.526C142.385 136.486 142.115 136.466 141.854 136.466C141.291 136.466 140.786 136.588 140.337 136.832C139.893 137.071 139.544 137.403 139.288 137.83C139.033 138.256 138.905 138.747 138.905 139.304V147H135.82ZM149.654 147.23C148.626 147.23 147.705 146.966 146.893 146.438C146.08 145.909 145.438 145.142 144.967 144.136C144.495 143.131 144.259 141.909 144.259 140.472C144.259 139.017 144.498 137.79 144.975 136.79C145.458 135.784 146.109 135.026 146.927 134.514C147.745 133.997 148.657 133.739 149.663 133.739C150.43 133.739 151.06 133.869 151.555 134.131C152.049 134.386 152.441 134.696 152.731 135.06C153.021 135.418 153.245 135.756 153.404 136.074H153.532V129.545H156.626V147H153.592V144.938H153.404C153.245 145.256 153.015 145.594 152.714 145.952C152.413 146.304 152.015 146.605 151.521 146.855C151.026 147.105 150.404 147.23 149.654 147.23ZM150.515 144.699C151.168 144.699 151.725 144.523 152.185 144.17C152.646 143.812 152.995 143.315 153.234 142.679C153.472 142.043 153.592 141.301 153.592 140.455C153.592 139.608 153.472 138.872 153.234 138.247C153.001 137.622 152.654 137.136 152.194 136.79C151.739 136.443 151.18 136.27 150.515 136.27C149.827 136.27 149.254 136.449 148.793 136.807C148.333 137.165 147.987 137.659 147.754 138.29C147.521 138.92 147.404 139.642 147.404 140.455C147.404 141.273 147.521 142.003 147.754 142.645C147.992 143.281 148.342 143.784 148.802 144.153C149.268 144.517 149.839 144.699 150.515 144.699ZM165.709 147.256C164.396 147.256 163.263 146.983 162.308 146.438C161.359 145.886 160.629 145.108 160.118 144.102C159.607 143.091 159.351 141.901 159.351 140.531C159.351 139.185 159.607 138.003 160.118 136.986C160.635 135.963 161.357 135.168 162.283 134.599C163.209 134.026 164.297 133.739 165.547 133.739C166.354 133.739 167.115 133.869 167.831 134.131C168.553 134.386 169.189 134.784 169.74 135.324C170.297 135.864 170.734 136.551 171.053 137.386C171.371 138.216 171.53 139.205 171.53 140.352V141.298H160.8V139.219H168.572C168.567 138.628 168.439 138.102 168.189 137.642C167.939 137.176 167.589 136.81 167.141 136.543C166.697 136.276 166.18 136.142 165.589 136.142C164.959 136.142 164.405 136.295 163.928 136.602C163.45 136.903 163.078 137.301 162.811 137.795C162.55 138.284 162.416 138.821 162.411 139.406V141.222C162.411 141.983 162.55 142.636 162.828 143.182C163.107 143.722 163.496 144.136 163.996 144.426C164.496 144.71 165.081 144.852 165.751 144.852C166.2 144.852 166.607 144.79 166.97 144.665C167.334 144.534 167.649 144.344 167.916 144.094C168.183 143.844 168.385 143.534 168.521 143.165L171.402 143.489C171.22 144.25 170.874 144.915 170.362 145.483C169.857 146.045 169.209 146.483 168.419 146.795C167.629 147.102 166.726 147.256 165.709 147.256ZM174.14 147V133.909H177.131V136.091H177.268C177.506 135.335 177.915 134.753 178.495 134.344C179.08 133.929 179.748 133.722 180.498 133.722C180.668 133.722 180.859 133.73 181.069 133.747C181.285 133.759 181.464 133.778 181.606 133.807V136.645C181.475 136.599 181.268 136.56 180.984 136.526C180.705 136.486 180.435 136.466 180.174 136.466C179.612 136.466 179.106 136.588 178.657 136.832C178.214 137.071 177.864 137.403 177.609 137.83C177.353 138.256 177.225 138.747 177.225 139.304V147H174.14ZM192.694 139.33V147H189.609V129.545H192.626V136.134H192.779C193.086 135.395 193.56 134.812 194.202 134.386C194.85 133.955 195.674 133.739 196.674 133.739C197.583 133.739 198.376 133.929 199.052 134.31C199.728 134.69 200.251 135.247 200.62 135.98C200.995 136.713 201.183 137.608 201.183 138.665V147H198.097V139.142C198.097 138.261 197.87 137.577 197.415 137.088C196.967 136.594 196.336 136.347 195.523 136.347C194.978 136.347 194.489 136.466 194.058 136.705C193.631 136.937 193.296 137.276 193.052 137.719C192.813 138.162 192.694 138.699 192.694 139.33ZM208.094 147.264C207.265 147.264 206.518 147.116 205.853 146.821C205.194 146.52 204.671 146.077 204.285 145.491C203.904 144.906 203.714 144.185 203.714 143.327C203.714 142.588 203.85 141.977 204.123 141.494C204.396 141.011 204.768 140.625 205.239 140.335C205.711 140.045 206.242 139.827 206.833 139.679C207.43 139.526 208.046 139.415 208.683 139.347C209.45 139.267 210.072 139.196 210.549 139.134C211.026 139.065 211.373 138.963 211.589 138.827C211.81 138.685 211.921 138.466 211.921 138.17V138.119C211.921 137.477 211.731 136.98 211.35 136.628C210.969 136.276 210.421 136.099 209.705 136.099C208.95 136.099 208.35 136.264 207.907 136.594C207.469 136.923 207.174 137.312 207.021 137.761L204.14 137.352C204.367 136.557 204.742 135.892 205.265 135.358C205.788 134.818 206.427 134.415 207.183 134.148C207.938 133.875 208.773 133.739 209.688 133.739C210.319 133.739 210.947 133.812 211.572 133.96C212.197 134.108 212.768 134.352 213.285 134.693C213.802 135.028 214.217 135.486 214.529 136.065C214.847 136.645 215.006 137.369 215.006 138.239V147H212.04V145.202H211.938C211.751 145.565 211.487 145.906 211.146 146.224C210.81 146.537 210.387 146.79 209.876 146.983C209.37 147.17 208.776 147.264 208.094 147.264ZM208.896 144.997C209.515 144.997 210.052 144.875 210.506 144.631C210.961 144.381 211.31 144.051 211.555 143.642C211.805 143.233 211.93 142.787 211.93 142.304V140.761C211.833 140.841 211.668 140.915 211.435 140.983C211.208 141.051 210.952 141.111 210.668 141.162C210.384 141.213 210.103 141.259 209.825 141.298C209.546 141.338 209.305 141.372 209.1 141.401C208.64 141.463 208.228 141.565 207.864 141.707C207.501 141.849 207.214 142.048 207.004 142.304C206.793 142.554 206.688 142.878 206.688 143.276C206.688 143.844 206.896 144.273 207.31 144.562C207.725 144.852 208.254 144.997 208.896 144.997ZM228.455 137.369L225.643 137.676C225.563 137.392 225.424 137.125 225.225 136.875C225.032 136.625 224.771 136.423 224.441 136.27C224.112 136.116 223.708 136.04 223.231 136.04C222.589 136.04 222.049 136.179 221.612 136.457C221.18 136.736 220.967 137.097 220.972 137.54C220.967 137.92 221.106 138.23 221.39 138.469C221.68 138.707 222.157 138.903 222.822 139.057L225.055 139.534C226.293 139.801 227.214 140.224 227.816 140.804C228.424 141.384 228.731 142.142 228.737 143.08C228.731 143.903 228.489 144.631 228.012 145.261C227.54 145.886 226.884 146.375 226.043 146.727C225.202 147.08 224.237 147.256 223.146 147.256C221.543 147.256 220.254 146.92 219.276 146.25C218.299 145.574 217.717 144.634 217.529 143.429L220.538 143.139C220.674 143.73 220.964 144.176 221.407 144.477C221.85 144.778 222.427 144.929 223.137 144.929C223.87 144.929 224.458 144.778 224.901 144.477C225.35 144.176 225.575 143.804 225.575 143.361C225.575 142.986 225.43 142.676 225.14 142.432C224.856 142.187 224.413 142 223.81 141.869L221.577 141.401C220.322 141.139 219.393 140.699 218.79 140.08C218.188 139.455 217.89 138.665 217.896 137.71C217.89 136.903 218.109 136.205 218.552 135.614C219.001 135.017 219.623 134.557 220.418 134.233C221.219 133.903 222.143 133.739 223.188 133.739C224.722 133.739 225.93 134.065 226.81 134.719C227.697 135.372 228.245 136.256 228.455 137.369ZM237.37 147V129.545H240.455V136.074H240.583C240.742 135.756 240.967 135.418 241.256 135.06C241.546 134.696 241.938 134.386 242.433 134.131C242.927 133.869 243.558 133.739 244.325 133.739C245.336 133.739 246.248 133.997 247.06 134.514C247.879 135.026 248.526 135.784 249.004 136.79C249.487 137.79 249.728 139.017 249.728 140.472C249.728 141.909 249.492 143.131 249.021 144.136C248.549 145.142 247.907 145.909 247.094 146.438C246.282 146.966 245.362 147.23 244.333 147.23C243.583 147.23 242.961 147.105 242.467 146.855C241.972 146.605 241.575 146.304 241.273 145.952C240.978 145.594 240.748 145.256 240.583 144.938H240.404V147H237.37ZM240.396 140.455C240.396 141.301 240.515 142.043 240.754 142.679C240.998 143.315 241.347 143.812 241.802 144.17C242.262 144.523 242.819 144.699 243.472 144.699C244.154 144.699 244.725 144.517 245.185 144.153C245.646 143.784 245.992 143.281 246.225 142.645C246.464 142.003 246.583 141.273 246.583 140.455C246.583 139.642 246.467 138.92 246.234 138.29C246.001 137.659 245.654 137.165 245.194 136.807C244.734 136.449 244.16 136.27 243.472 136.27C242.813 136.27 242.254 136.443 241.793 136.79C241.333 137.136 240.984 137.622 240.745 138.247C240.512 138.872 240.396 139.608 240.396 140.455ZM258.146 147.256C256.834 147.256 255.7 146.983 254.746 146.438C253.797 145.886 253.067 145.108 252.555 144.102C252.044 143.091 251.788 141.901 251.788 140.531C251.788 139.185 252.044 138.003 252.555 136.986C253.072 135.963 253.794 135.168 254.72 134.599C255.646 134.026 256.734 133.739 257.984 133.739C258.791 133.739 259.553 133.869 260.268 134.131C260.99 134.386 261.626 134.784 262.178 135.324C262.734 135.864 263.172 136.551 263.49 137.386C263.808 138.216 263.967 139.205 263.967 140.352V141.298H253.237V139.219H261.01C261.004 138.628 260.876 138.102 260.626 137.642C260.376 137.176 260.027 136.81 259.578 136.543C259.135 136.276 258.618 136.142 258.027 136.142C257.396 136.142 256.842 136.295 256.365 136.602C255.888 136.903 255.516 137.301 255.249 137.795C254.987 138.284 254.854 138.821 254.848 139.406V141.222C254.848 141.983 254.987 142.636 255.266 143.182C255.544 143.722 255.933 144.136 256.433 144.426C256.933 144.71 257.518 144.852 258.189 144.852C258.638 144.852 259.044 144.79 259.408 144.665C259.771 144.534 260.087 144.344 260.354 144.094C260.621 143.844 260.822 143.534 260.959 143.165L263.839 143.489C263.658 144.25 263.311 144.915 262.8 145.483C262.294 146.045 261.646 146.483 260.857 146.795C260.067 147.102 259.163 147.256 258.146 147.256ZM272.373 147.256C271.06 147.256 269.927 146.983 268.972 146.438C268.023 145.886 267.293 145.108 266.782 144.102C266.271 143.091 266.015 141.901 266.015 140.531C266.015 139.185 266.271 138.003 266.782 136.986C267.299 135.963 268.021 135.168 268.947 134.599C269.873 134.026 270.961 133.739 272.211 133.739C273.018 133.739 273.779 133.869 274.495 134.131C275.217 134.386 275.853 134.784 276.404 135.324C276.961 135.864 277.398 136.551 277.717 137.386C278.035 138.216 278.194 139.205 278.194 140.352V141.298H267.464V139.219H275.237C275.231 138.628 275.103 138.102 274.853 137.642C274.603 137.176 274.254 136.81 273.805 136.543C273.362 136.276 272.844 136.142 272.254 136.142C271.623 136.142 271.069 136.295 270.592 136.602C270.114 136.903 269.742 137.301 269.475 137.795C269.214 138.284 269.08 138.821 269.075 139.406V141.222C269.075 141.983 269.214 142.636 269.492 143.182C269.771 143.722 270.16 144.136 270.66 144.426C271.16 144.71 271.745 144.852 272.415 144.852C272.864 144.852 273.271 144.79 273.634 144.665C273.998 144.534 274.313 144.344 274.58 144.094C274.847 143.844 275.049 143.534 275.185 143.165L278.066 143.489C277.884 144.25 277.538 144.915 277.026 145.483C276.521 146.045 275.873 146.483 275.083 146.795C274.293 147.102 273.39 147.256 272.373 147.256ZM283.889 139.33V147H280.804V133.909H283.753V136.134H283.906C284.207 135.401 284.688 134.818 285.347 134.386C286.011 133.955 286.832 133.739 287.81 133.739C288.713 133.739 289.5 133.932 290.17 134.318C290.847 134.705 291.369 135.264 291.739 135.997C292.114 136.73 292.298 137.619 292.293 138.665V147H289.207V139.142C289.207 138.267 288.98 137.582 288.526 137.088C288.077 136.594 287.455 136.347 286.659 136.347C286.119 136.347 285.639 136.466 285.219 136.705C284.804 136.937 284.477 137.276 284.239 137.719C284.006 138.162 283.889 138.699 283.889 139.33ZM301.382 151.909V133.909H304.416V136.074H304.595C304.754 135.756 304.979 135.418 305.268 135.06C305.558 134.696 305.95 134.386 306.445 134.131C306.939 133.869 307.57 133.739 308.337 133.739C309.348 133.739 310.26 133.997 311.072 134.514C311.891 135.026 312.538 135.784 313.016 136.79C313.499 137.79 313.74 139.017 313.74 140.472C313.74 141.909 313.504 143.131 313.033 144.136C312.561 145.142 311.919 145.909 311.107 146.438C310.294 146.966 309.374 147.23 308.345 147.23C307.595 147.23 306.973 147.105 306.479 146.855C305.984 146.605 305.587 146.304 305.286 145.952C304.99 145.594 304.76 145.256 304.595 144.938H304.467V151.909H301.382ZM304.408 140.455C304.408 141.301 304.527 142.043 304.766 142.679C305.01 143.315 305.359 143.812 305.814 144.17C306.274 144.523 306.831 144.699 307.484 144.699C308.166 144.699 308.737 144.517 309.197 144.153C309.658 143.784 310.004 143.281 310.237 142.645C310.476 142.003 310.595 141.273 310.595 140.455C310.595 139.642 310.479 138.92 310.246 138.29C310.013 137.659 309.666 137.165 309.206 136.807C308.746 136.449 308.172 136.27 307.484 136.27C306.825 136.27 306.266 136.443 305.805 136.79C305.345 137.136 304.996 137.622 304.757 138.247C304.524 138.872 304.408 139.608 304.408 140.455ZM319.467 129.545V147H316.382V129.545H319.467ZM326.407 147.264C325.577 147.264 324.83 147.116 324.165 146.821C323.506 146.52 322.984 146.077 322.597 145.491C322.217 144.906 322.026 144.185 322.026 143.327C322.026 142.588 322.163 141.977 322.435 141.494C322.708 141.011 323.08 140.625 323.552 140.335C324.023 140.045 324.555 139.827 325.146 139.679C325.742 139.526 326.359 139.415 326.995 139.347C327.762 139.267 328.384 139.196 328.862 139.134C329.339 139.065 329.685 138.963 329.901 138.827C330.123 138.685 330.234 138.466 330.234 138.17V138.119C330.234 137.477 330.043 136.98 329.663 136.628C329.282 136.276 328.734 136.099 328.018 136.099C327.262 136.099 326.663 136.264 326.219 136.594C325.782 136.923 325.487 137.312 325.333 137.761L322.452 137.352C322.68 136.557 323.055 135.892 323.577 135.358C324.1 134.818 324.739 134.415 325.495 134.148C326.251 133.875 327.086 133.739 328.001 133.739C328.631 133.739 329.259 133.812 329.884 133.96C330.509 134.108 331.08 134.352 331.597 134.693C332.114 135.028 332.529 135.486 332.842 136.065C333.16 136.645 333.319 137.369 333.319 138.239V147H330.353V145.202H330.251C330.063 145.565 329.799 145.906 329.458 146.224C329.123 146.537 328.7 146.79 328.188 146.983C327.683 147.17 327.089 147.264 326.407 147.264ZM327.208 144.997C327.827 144.997 328.364 144.875 328.819 144.631C329.273 144.381 329.623 144.051 329.867 143.642C330.117 143.233 330.242 142.787 330.242 142.304V140.761C330.146 140.841 329.981 140.915 329.748 140.983C329.521 141.051 329.265 141.111 328.981 141.162C328.697 141.213 328.415 141.259 328.137 141.298C327.859 141.338 327.617 141.372 327.413 141.401C326.952 141.463 326.54 141.565 326.177 141.707C325.813 141.849 325.526 142.048 325.316 142.304C325.106 142.554 325.001 142.878 325.001 143.276C325.001 143.844 325.208 144.273 325.623 144.562C326.038 144.852 326.566 144.997 327.208 144.997ZM342.131 147.256C340.825 147.256 339.702 146.969 338.765 146.395C337.833 145.821 337.114 145.028 336.609 144.017C336.109 143 335.859 141.83 335.859 140.506C335.859 139.176 336.114 138.003 336.626 136.986C337.137 135.963 337.859 135.168 338.79 134.599C339.728 134.026 340.836 133.739 342.114 133.739C343.177 133.739 344.117 133.935 344.935 134.327C345.759 134.713 346.415 135.261 346.904 135.972C347.393 136.676 347.671 137.5 347.739 138.443H344.79C344.671 137.812 344.387 137.287 343.938 136.866C343.495 136.44 342.901 136.227 342.157 136.227C341.526 136.227 340.972 136.398 340.495 136.739C340.018 137.074 339.646 137.557 339.379 138.188C339.117 138.818 338.987 139.574 338.987 140.455C338.987 141.347 339.117 142.114 339.379 142.756C339.64 143.392 340.006 143.884 340.478 144.23C340.955 144.571 341.515 144.741 342.157 144.741C342.612 144.741 343.018 144.656 343.376 144.486C343.739 144.31 344.043 144.057 344.288 143.727C344.532 143.398 344.7 142.997 344.79 142.526H347.739C347.665 143.452 347.393 144.273 346.921 144.989C346.45 145.699 345.808 146.256 344.995 146.659C344.183 147.057 343.228 147.256 342.131 147.256ZM356.068 147.256C354.756 147.256 353.622 146.983 352.668 146.438C351.719 145.886 350.989 145.108 350.477 144.102C349.966 143.091 349.71 141.901 349.71 140.531C349.71 139.185 349.966 138.003 350.477 136.986C350.994 135.963 351.716 135.168 352.642 134.599C353.568 134.026 354.656 133.739 355.906 133.739C356.713 133.739 357.474 133.869 358.19 134.131C358.912 134.386 359.548 134.784 360.099 135.324C360.656 135.864 361.094 136.551 361.412 137.386C361.73 138.216 361.889 139.205 361.889 140.352V141.298H351.159V139.219H358.932C358.926 138.628 358.798 138.102 358.548 137.642C358.298 137.176 357.949 136.81 357.5 136.543C357.057 136.276 356.54 136.142 355.949 136.142C355.318 136.142 354.764 136.295 354.287 136.602C353.81 136.903 353.438 137.301 353.17 137.795C352.909 138.284 352.776 138.821 352.77 139.406V141.222C352.77 141.983 352.909 142.636 353.188 143.182C353.466 143.722 353.855 144.136 354.355 144.426C354.855 144.71 355.44 144.852 356.111 144.852C356.56 144.852 356.966 144.79 357.33 144.665C357.693 144.534 358.009 144.344 358.276 144.094C358.543 143.844 358.744 143.534 358.881 143.165L361.761 143.489C361.58 144.25 361.233 144.915 360.722 145.483C360.216 146.045 359.568 146.483 358.778 146.795C357.989 147.102 357.085 147.256 356.068 147.256ZM369.357 147.23C368.329 147.23 367.408 146.966 366.596 146.438C365.783 145.909 365.141 145.142 364.67 144.136C364.198 143.131 363.962 141.909 363.962 140.472C363.962 139.017 364.201 137.79 364.678 136.79C365.161 135.784 365.812 135.026 366.63 134.514C367.448 133.997 368.36 133.739 369.366 133.739C370.133 133.739 370.763 133.869 371.258 134.131C371.752 134.386 372.144 134.696 372.434 135.06C372.724 135.418 372.948 135.756 373.107 136.074H373.235V129.545H376.329V147H373.295V144.938H373.107C372.948 145.256 372.718 145.594 372.417 145.952C372.116 146.304 371.718 146.605 371.224 146.855C370.729 147.105 370.107 147.23 369.357 147.23ZM370.218 144.699C370.871 144.699 371.428 144.523 371.888 144.17C372.349 143.812 372.698 143.315 372.937 142.679C373.175 142.043 373.295 141.301 373.295 140.455C373.295 139.608 373.175 138.872 372.937 138.247C372.704 137.622 372.357 137.136 371.897 136.79C371.442 136.443 370.883 136.27 370.218 136.27C369.531 136.27 368.957 136.449 368.496 136.807C368.036 137.165 367.69 137.659 367.457 138.29C367.224 138.92 367.107 139.642 367.107 140.455C367.107 141.273 367.224 142.003 367.457 142.645C367.695 143.281 368.045 143.784 368.505 144.153C368.971 144.517 369.542 144.699 370.218 144.699ZM383.392 129.545L383.111 141.869H380.366L380.094 129.545H383.392ZM381.739 147.188C381.222 147.188 380.778 147.006 380.409 146.642C380.045 146.278 379.864 145.835 379.864 145.312C379.864 144.801 380.045 144.364 380.409 144C380.778 143.636 381.222 143.455 381.739 143.455C382.244 143.455 382.682 143.636 383.051 144C383.426 144.364 383.614 144.801 383.614 145.312C383.614 145.659 383.526 145.974 383.349 146.259C383.179 146.543 382.952 146.77 382.668 146.94C382.389 147.105 382.08 147.188 381.739 147.188Z" fill="black"/>
</svg>
